<svg width="51" height="47" viewBox="0 0 51 47" version="1.1" xmlns="http://www.w3.org/2000/svg" xmlns:xlink="http://www.w3.org/1999/xlink" xmlns:figma="http://www.figma.com/figma/ns">
<title>Combined Shape</title>
<desc>Created using Figma</desc>
<g id="Canvas" transform="translate(656 -2090)" figma:type="canvas">
<g id="Combined Shape" figma:type="vector-operation">
<use xlink:href="#path0_fill" transform="translate(-656 2090)" fill="#DFE3E6"/>
</g>
</g>
<defs>
<path id="path0_fill" fill-rule="evenodd" d="M 41.8229 46.7957C 40.9945 46.7957 40.3229 46.1169 40.3229 45.2795L 40.3229 6.08643L 26.2021 25.2163C 25.5879 26.0486 24.3463 26.0244 23.7641 25.1689L 8.31165 2.46606C 7.8421 1.77637 8.01477 0.832275 8.69733 0.35791C 9.37982 -0.116699 10.3137 0.0578613 10.7833 0.747559L 25.0493 21.7075L 40.6207 0.612549C 41.4838 -0.556885 43.3229 0.0600586 43.3229 1.51904L 43.3229 43.7634L 47.999 43.7634L 47.9719 1.60791C 47.9713 0.770508 48.6425 0.0913086 49.4709 0.0908203C 50.2993 0.090332 50.9713 0.768555 50.9719 1.60596L 51 45.2786C 51.0005 46.1162 50.3288 46.7957 49.5 46.7957L 41.8229 46.7957ZM 3 6.7085L 3 43.968L 7.73334 43.968L 7.73334 21.9961C 7.73334 21.1589 8.40491 20.4802 9.23334 20.4802C 10.0618 20.4802 10.7333 21.1589 10.7333 21.9961L 10.7333 45.4841C 10.7333 46.3213 10.0618 47 9.23334 47L 1.5 47C 0.67157 47 0 46.3213 0 45.4841L 0 1.80664C 0 0.315918 1.9054 -0.279541 2.7381 0.950928L 25.1414 34.0549L 34.978 20.8569C 35.4765 20.1882 36.417 20.0544 37.0787 20.5583C 37.7404 21.062 37.8727 22.0125 37.3743 22.6814L 26.2807 37.5657C 25.6633 38.394 24.4238 38.3652 23.8445 37.5093L 3 6.7085Z"/>
</defs>
</svg>
